<svg width="53" height="49" viewBox="0 0 53 49" fill="none" xmlns="http://www.w3.org/2000/svg">
<path d="M38.3988 41.5498V19.45H4.39893V41.5498C4.39893 42.4888 5.15999 43.2498 6.09892 43.2498H36.6988C37.6377 43.2498 38.3988 42.4888 38.3988 41.5498Z" fill="#289BC3"/>
<path d="M14.6015 38.1498H11.2015C8.38486 38.1498 6.10156 40.4331 6.10156 43.2498C6.10156 46.0664 8.38486 48.3497 11.2015 48.3497H14.6015C17.4182 48.3497 19.7015 46.0664 19.7015 43.2498C19.7015 40.4331 17.4182 38.1498 14.6015 38.1498Z" fill="#32283C"/>
<path d="M45.1987 38.1498H41.7987C38.982 38.1498 36.6987 40.4331 36.6987 43.2498C36.6987 46.0665 38.982 48.3498 41.7987 48.3498H45.1987C48.0154 48.3498 50.2987 46.0665 50.2987 43.2498C50.2987 40.4331 48.0154 38.1498 45.1987 38.1498Z" fill="#32283C"/>
<path d="M41.7987 48.3498C44.6153 48.3498 46.8987 46.0665 46.8987 43.2498C46.8987 40.4332 44.6153 38.1498 41.7987 38.1498C38.9821 38.1498 36.6987 40.4332 36.6987 43.2498C36.6987 46.0665 38.9821 48.3498 41.7987 48.3498Z" fill="#555A6E"/>
<path d="M41.7976 44.9498C42.7365 44.9498 43.4976 44.1887 43.4976 43.2498C43.4976 42.3109 42.7365 41.5498 41.7976 41.5498C40.8588 41.5498 40.0977 42.3109 40.0977 43.2498C40.0977 44.1887 40.8588 44.9498 41.7976 44.9498Z" fill="#E6E6EB"/>
<path d="M31.601 38.1498H28.201C25.3844 38.1498 23.1011 40.4331 23.1011 43.2498C23.1011 46.0665 25.3844 48.3498 28.201 48.3498H31.601C34.4177 48.3498 36.701 46.0665 36.701 43.2498C36.701 40.4331 34.4177 38.1498 31.601 38.1498Z" fill="#32283C"/>
<path d="M48.6022 21.15H23.1023C22.1634 21.15 21.4023 21.911 21.4023 22.85V24.5499H48.6022C49.5411 24.5499 50.3022 23.7889 50.3022 22.85C50.3022 21.911 49.5411 21.15 48.6022 21.15Z" fill="#A5C3DC"/>
<path d="M31.6023 21.15H23.1023C22.1634 21.15 21.4023 21.911 21.4023 22.85V24.5499H31.6023C32.5412 24.5499 33.3023 23.7889 33.3023 22.85C33.3023 21.911 32.5412 21.15 31.6023 21.15Z" fill="#D7E6F0"/>
<path d="M21.4023 24.5499H48.6022V33.0498H21.4023V24.5499Z" fill="#463C4B"/>
<path d="M21.4023 24.5499H31.6023V33.0498H21.4023V24.5499Z" fill="#555A6E"/>
<path d="M50.3022 43.2498H23.1023C22.1634 43.2498 21.4023 42.4887 21.4023 41.5498V33.0498H48.6022C50.4799 33.0498 52.0022 34.572 52.0022 36.4498V41.5498C52.0022 42.4887 51.2411 43.2498 50.3022 43.2498Z" fill="#A5C3DC"/>
<path d="M33.3023 43.2498H23.1023C22.1634 43.2498 21.4023 42.4887 21.4023 41.5498V33.0498H31.6023C33.48 33.0498 35.0023 34.572 35.0023 36.4498V41.5498C35.0023 42.4887 34.2412 43.2498 33.3023 43.2498Z" fill="#D7E6F0"/>
<path d="M39.1072 36.4498H47.8905C49.2206 36.4498 50.2988 37.528 50.2988 38.8582C50.2988 40.1882 49.2205 41.2665 47.8904 41.2665H39.1071C37.7771 41.2665 36.6987 40.1883 36.6987 38.8582C36.6988 37.528 37.7771 36.4498 39.1072 36.4498V36.4498Z" fill="#555A6E"/>
<path d="M39.1109 40.1332C39.8151 40.1332 40.3859 39.5623 40.3859 38.8582C40.3859 38.154 39.8151 37.5832 39.1109 37.5832C38.4068 37.5832 37.8359 38.154 37.8359 38.8582C37.8359 39.5623 38.4068 40.1332 39.1109 40.1332Z" fill="#00D2D2"/>
<path d="M47.8883 40.1332C48.5924 40.1332 49.1633 39.5623 49.1633 38.8582C49.1633 38.154 48.5924 37.5832 47.8883 37.5832C47.1841 37.5832 46.6133 38.154 46.6133 38.8582C46.6133 39.5623 47.1841 40.1332 47.8883 40.1332Z" fill="#00D2D2"/>
<path d="M17.1497 5H12.0497C11.5803 5 11.1997 5.38059 11.1997 5.85C11.1997 6.31941 11.5803 6.69999 12.0497 6.69999C15.3305 6.69999 17.9997 9.36919 17.9997 12.65C17.9997 13.1194 18.3803 13.5 18.8497 13.5H23.9496C24.4191 13.5 24.7996 13.1194 24.7996 12.65C24.7996 8.43175 21.3679 5 17.1497 5Z" fill="#A5C3DC"/>
<path d="M30.7494 5H25.6495C21.4313 5 17.9995 8.43175 17.9995 12.65C17.9995 13.1194 18.3801 13.5 18.8495 13.5H23.9495C24.4189 13.5 24.7995 13.1194 24.7995 12.65C24.7995 9.36919 27.4687 6.69999 30.7494 6.69999C31.2189 6.69999 31.5994 6.31941 31.5994 5.85C31.5994 5.38059 31.2189 5 30.7494 5Z" fill="#A5C3DC"/>
<path d="M34.1497 5H29.0497C28.5803 5 28.1997 5.38059 28.1997 5.85C28.1997 6.31941 28.5803 6.69999 29.0497 6.69999C30.4558 6.69999 31.5997 7.84387 31.5997 9.24998C31.5997 10.6561 30.4558 11.8 29.0497 11.8C28.5803 11.8 28.1997 12.1806 28.1997 12.65C28.1997 13.1194 28.5803 13.5 29.0497 13.5H34.1497C36.4931 13.5 38.3997 11.5934 38.3997 9.24998C38.3997 6.90654 36.4931 5 34.1497 5Z" fill="#A5C3DC"/>
<path d="M13.7489 11.8C12.3428 11.8 11.1989 10.6561 11.1989 9.24998C11.1989 7.84387 12.3428 6.69999 13.7489 6.69999C14.2183 6.69999 14.5989 6.31941 14.5989 5.85C14.5989 5.38059 14.2183 5 13.7489 5H8.6489C6.30547 5 4.39893 6.90654 4.39893 9.24998C4.39893 11.5934 6.30547 13.5 8.6489 13.5H13.7489C14.2183 13.5 14.5989 13.1194 14.5989 12.65C14.5989 12.1806 14.2183 11.8 13.7489 11.8Z" fill="#A5C3DC"/>
<path d="M40.0998 13.4999H2.69999C1.76106 13.4999 1 14.261 1 15.1999V17.7499C1 18.6888 1.76106 19.4499 2.69999 19.4499H40.0998C41.0387 19.4499 41.7998 18.6888 41.7998 17.7499V15.1999C41.7998 14.261 41.0387 13.4999 40.0998 13.4999Z" fill="#289BC3"/>
<path d="M19.6988 43.2498H6.09892C5.15999 43.2498 4.39893 42.4887 4.39893 41.5498V24.5499H21.3988V41.5498C21.3988 42.4887 20.6378 43.2498 19.6988 43.2498Z" fill="#00D2D2"/>
<path d="M21.3999 13.4999H2.69999C1.76106 13.4999 1 14.261 1 15.1999V17.7499C1 18.6888 1.76106 19.4499 2.69999 19.4499H21.3999C22.3388 19.4499 23.0999 18.6888 23.0999 17.7499V15.1999C23.0999 14.261 22.3388 13.4999 21.3999 13.4999Z" fill="#00D2D2"/>
<path d="M12.8978 17.7499C12.8978 18.6888 13.6589 19.4499 14.5978 19.4499H9.49784C8.55892 19.4499 7.79785 18.6888 7.79785 17.7499V15.1999C7.79785 14.261 8.55892 13.4999 9.49784 13.4999H14.5978C13.6589 13.4999 12.8978 14.261 12.8978 15.1999V17.7499Z" fill="#D7E6F0"/>
<path d="M29.9031 17.75C29.9031 18.6889 29.1421 19.45 28.2031 19.45H33.3031C34.242 19.45 35.0031 18.6889 35.0031 17.75V15.2C35.0031 14.2611 34.242 13.5 33.3031 13.5H28.2031C29.1421 13.5 29.9031 14.2611 29.9031 15.2V17.75Z" fill="#A5C3DC"/>
<path d="M29.0529 13.5H18.0029V12.65C18.0029 8.43175 21.4347 5 25.6529 5H29.0529C31.3963 5 33.3028 6.90654 33.3028 9.24998C33.3028 11.5934 31.3963 13.5 29.0529 13.5ZM19.7635 11.8H29.0529C30.459 11.8 31.6029 10.6561 31.6029 9.24998C31.6029 7.84387 30.459 6.69999 29.0529 6.69999H25.6529C22.6606 6.69999 20.1771 8.92029 19.7635 11.8Z" fill="#D7E6F0"/>
<path d="M15.2999 8.49996H4.24998C1.90654 8.49996 0 6.59342 0 4.24998C0 1.90654 1.90654 0 4.24998 0H7.64996C11.8682 0 15.2999 3.43175 15.2999 7.64996V8.49996ZM4.24998 1.69999C2.84387 1.69999 1.69999 2.84387 1.69999 4.24998C1.69999 5.65608 2.84387 6.79996 4.24998 6.79996H13.5394C13.1256 3.92029 10.6422 1.69999 7.64996 1.69999H4.24998Z" fill="#D7E6F0"/>
<path d="M28.201 48.3498C31.0177 48.3498 33.301 46.0665 33.301 43.2498C33.301 40.4332 31.0177 38.1498 28.201 38.1498C25.3844 38.1498 23.1011 40.4332 23.1011 43.2498C23.1011 46.0665 25.3844 48.3498 28.201 48.3498Z" fill="#555A6E"/>
<path d="M28.2 44.9498C29.1389 44.9498 29.9 44.1887 29.9 43.2498C29.9 42.3109 29.1389 41.5498 28.2 41.5498C27.2611 41.5498 26.5 42.3109 26.5 43.2498C26.5 44.1887 27.2611 44.9498 28.2 44.9498Z" fill="#E6E6EB"/>
<path d="M11.2015 48.3497C14.0182 48.3497 16.3015 46.0664 16.3015 43.2498C16.3015 40.4331 14.0182 38.1498 11.2015 38.1498C8.3849 38.1498 6.10156 40.4331 6.10156 43.2498C6.10156 46.0664 8.3849 48.3497 11.2015 48.3497Z" fill="#555A6E"/>
<path d="M11.1966 44.9498C12.1355 44.9498 12.8966 44.1887 12.8966 43.2498C12.8966 42.3109 12.1355 41.5498 11.1966 41.5498C10.2577 41.5498 9.49658 42.3109 9.49658 43.2498C9.49658 44.1887 10.2577 44.9498 11.1966 44.9498Z" fill="#E6E6EB"/>
</svg>
